# xmcd CD database file
#
# Track frame offsets:
#	150
#	16650
#	31425
#	44250
#	63625
#	76350
#	91987
#	109125
#	126425
#	145537
#	162300
#
# Disc length: 2379 seconds
#
# Revision: 0
# Processed by: cddbd v1.5.1PL0 Copyright (c) Steve Scherf et al.
# Submitted via: CDex 1.51
#
DISCID=8b09490b
DTITLE=Codera - Live-Style
DYEAR=1991
DGENRE=Jazz
TTITLE0=Kisses in the Night
TTITLE1=Train to Costa Mesa
TTITLE2=Shufflin' Cat
TTITLE3=French Memories
TTITLE4=Comfort me
TTITLE5=Just for Fun
TTITLE6=We're in the Mood for Love
TTITLE7=Mariella
TTITLE8=When I call your Name
TTITLE9=Keep Swingin'
TTITLE10=Good Morning
EXTD=YEAR: 1991
EXTT0=
EXTT1=
EXTT2=
EXTT3=
EXTT4=
EXTT5=
EXTT6=
EXTT7=
EXTT8=
EXTT9=
EXTT10=
PLAYORDER=
